<?xml version="1.0" encoding="utf-8" standalone="no"?>
<!DOCTYPE svg PUBLIC "-//W3C//DTD SVG 1.1//EN"
  "http://www.w3.org/Graphics/SVG/1.1/DTD/svg11.dtd">
<svg xmlns:xlink="http://www.w3.org/1999/xlink" width="432pt" height="288pt" viewBox="0 0 432 288" xmlns="http://www.w3.org/2000/svg" version="1.1">
 <metadata>
  <rdf:RDF xmlns:dc="http://purl.org/dc/elements/1.1/" xmlns:cc="http://creativecommons.org/ns#" xmlns:rdf="http://www.w3.org/1999/02/22-rdf-syntax-ns#">
   <cc:Work>
    <dc:type rdf:resource="http://purl.org/dc/dcmitype/StillImage"/>
    <dc:date>2022-11-15T19:25:04.751256</dc:date>
    <dc:format>image/svg+xml</dc:format>
    <dc:creator>
     <cc:Agent>
      <dc:title>Matplotlib v3.5.1, https://matplotlib.org/</dc:title>
     </cc:Agent>
    </dc:creator>
   </cc:Work>
  </rdf:RDF>
 </metadata>
 <defs>
  <style type="text/css">*{stroke-linejoin: round; stroke-linecap: butt}</style>
 </defs>
 <g id="figure_1">
  <g id="patch_1">
   <path d="M 0 288 
L 432 288 
L 432 0 
L 0 0 
L 0 288 
z
" style="fill: none"/>
  </g>
  <g id="axes_1">
   <g id="patch_2">
    <path d="M 54 252 
L 388.8 252 
L 388.8 34.56 
L 54 34.56 
z
" style="fill: #ffffff"/>
   </g>
   <g id="PathCollection_1">
    <defs>
     <path id="m75b283697a" d="M 0 2.236068 
C 0.593012 2.236068 1.161816 2.000462 1.581139 1.581139 
C 2.000462 1.161816 2.236068 0.593012 2.236068 0 
C 2.236068 -0.593012 2.000462 -1.161816 1.581139 -1.581139 
C 1.161816 -2.000462 0.593012 -2.236068 0 -2.236068 
C -0.593012 -2.236068 -1.161816 -2.000462 -1.581139 -1.581139 
C -2.000462 -1.161816 -2.236068 -0.593012 -2.236068 0 
C -2.236068 0.593012 -2.000462 1.161816 -1.581139 1.581139 
C -1.161816 2.000462 -0.593012 2.236068 0 2.236068 
z
" style="stroke: #1f77b4"/>
    </defs>
    <g clip-path="url(#p6d5e326235)">
     <use xlink:href="#m75b283697a" x="70.992744" y="165.566026" style="fill: #1f77b4; stroke: #1f77b4"/>
     <use xlink:href="#m75b283697a" x="87.886953" y="77.139868" style="fill: #1f77b4; stroke: #1f77b4"/>
     <use xlink:href="#m75b283697a" x="92.20617" y="101.088143" style="fill: #1f77b4; stroke: #1f77b4"/>
     <use xlink:href="#m75b283697a" x="79.521163" y="209.598475" style="fill: #1f77b4; stroke: #1f77b4"/>
     <use xlink:href="#m75b283697a" x="128.749704" y="80.13969" style="fill: #1f77b4; stroke: #1f77b4"/>
     <use xlink:href="#m75b283697a" x="118.384542" y="78.868424" style="fill: #1f77b4; stroke: #1f77b4"/>
     <use xlink:href="#m75b283697a" x="77.933145" y="89.514134" style="fill: #1f77b4; stroke: #1f77b4"/>
     <use xlink:href="#m75b283697a" x="207.686608" y="50.937154" style="fill: #1f77b4; stroke: #1f77b4"/>
     <use xlink:href="#m75b283697a" x="220.921681" y="58.253793" style="fill: #1f77b4; stroke: #1f77b4"/>
     <use xlink:href="#m75b283697a" x="79.9373" y="110.746106" style="fill: #1f77b4; stroke: #1f77b4"/>
     <use xlink:href="#m75b283697a" x="176.533723" y="85.508274" style="fill: #1f77b4; stroke: #1f77b4"/>
     <use xlink:href="#m75b283697a" x="173.123312" y="75.781717" style="fill: #1f77b4; stroke: #1f77b4"/>
     <use xlink:href="#m75b283697a" x="72.963416" y="117.797517" style="fill: #1f77b4; stroke: #1f77b4"/>
     <use xlink:href="#m75b283697a" x="139.483171" y="82.087745" style="fill: #1f77b4; stroke: #1f77b4"/>
     <use xlink:href="#m75b283697a" x="96.214479" y="100.964674" style="fill: #1f77b4; stroke: #1f77b4"/>
     <use xlink:href="#m75b283697a" x="211.030055" y="60.174411" style="fill: #1f77b4; stroke: #1f77b4"/>
     <use xlink:href="#m75b283697a" x="99.127438" y="94.402564" style="fill: #1f77b4; stroke: #1f77b4"/>
     <use xlink:href="#m75b283697a" x="74.073115" y="163.746012" style="fill: #1f77b4; stroke: #1f77b4"/>
     <use xlink:href="#m75b283697a" x="81.797959" y="140.671161" style="fill: #1f77b4; stroke: #1f77b4"/>
     <use xlink:href="#m75b283697a" x="84.055622" y="128.38378" style="fill: #1f77b4; stroke: #1f77b4"/>
     <use xlink:href="#m75b283697a" x="95.243492" y="74.02115" style="fill: #1f77b4; stroke: #1f77b4"/>
     <use xlink:href="#m75b283697a" x="116.165144" y="185.211202" style="fill: #1f77b4; stroke: #1f77b4"/>
     <use xlink:href="#m75b283697a" x="106.354831" y="95.152519" style="fill: #1f77b4; stroke: #1f77b4"/>
     <use xlink:href="#m75b283697a" x="297.510042" y="69.24247" style="fill: #1f77b4; stroke: #1f77b4"/>
     <use xlink:href="#m75b283697a" x="100.858951" y="89.075136" style="fill: #1f77b4; stroke: #1f77b4"/>
     <use xlink:href="#m75b283697a" x="72.60946" y="185.110598" style="fill: #1f77b4; stroke: #1f77b4"/>
     <use xlink:href="#m75b283697a" x="69.940443" y="195.802037" style="fill: #1f77b4; stroke: #1f77b4"/>
     <use xlink:href="#m75b283697a" x="72.51858" y="132.792055" style="fill: #1f77b4; stroke: #1f77b4"/>
     <use xlink:href="#m75b283697a" x="76.445575" y="178.841153" style="fill: #1f77b4; stroke: #1f77b4"/>
     <use xlink:href="#m75b283697a" x="223.026283" y="53.315061" style="fill: #1f77b4; stroke: #1f77b4"/>
     <use xlink:href="#m75b283697a" x="78.779769" y="97.100574" style="fill: #1f77b4; stroke: #1f77b4"/>
     <use xlink:href="#m75b283697a" x="71.466279" y="216.489835" style="fill: #1f77b4; stroke: #1f77b4"/>
     <use xlink:href="#m75b283697a" x="72.685991" y="202.858021" style="fill: #1f77b4; stroke: #1f77b4"/>
     <use xlink:href="#m75b283697a" x="117.734029" y="64.29002" style="fill: #1f77b4; stroke: #1f77b4"/>
     <use xlink:href="#m75b283697a" x="84.117804" y="86.633207" style="fill: #1f77b4; stroke: #1f77b4"/>
     <use xlink:href="#m75b283697a" x="95.320023" y="91.654251" style="fill: #1f77b4; stroke: #1f77b4"/>
     <use xlink:href="#m75b283697a" x="73.035164" y="151.67813" style="fill: #1f77b4; stroke: #1f77b4"/>
     <use xlink:href="#m75b283697a" x="69.218182" y="204.325922" style="fill: #1f77b4; stroke: #1f77b4"/>
     <use xlink:href="#m75b283697a" x="84.194334" y="177.167472" style="fill: #1f77b4; stroke: #1f77b4"/>
     <use xlink:href="#m75b283697a" x="104.518088" y="61.038689" style="fill: #1f77b4; stroke: #1f77b4"/>
     <use xlink:href="#m75b283697a" x="76.172933" y="204.13386" style="fill: #1f77b4; stroke: #1f77b4"/>
     <use xlink:href="#m75b283697a" x="118.437157" y="74.405274" style="fill: #1f77b4; stroke: #1f77b4"/>
     <use xlink:href="#m75b283697a" x="97.070669" y="65.780785" style="fill: #1f77b4; stroke: #1f77b4"/>
     <use xlink:href="#m75b283697a" x="176.97856" y="59.712548" style="fill: #1f77b4; stroke: #1f77b4"/>
     <use xlink:href="#m75b283697a" x="148.289015" y="73.252903" style="fill: #1f77b4; stroke: #1f77b4"/>
     <use xlink:href="#m75b283697a" x="219.950695" y="64.793039" style="fill: #1f77b4; stroke: #1f77b4"/>
     <use xlink:href="#m75b283697a" x="76.880844" y="155.688563" style="fill: #1f77b4; stroke: #1f77b4"/>
     <use xlink:href="#m75b283697a" x="88.628347" y="93.817232" style="fill: #1f77b4; stroke: #1f77b4"/>
     <use xlink:href="#m75b283697a" x="94.683859" y="81.013114" style="fill: #1f77b4; stroke: #1f77b4"/>
     <use xlink:href="#m75b283697a" x="89.962856" y="102.601772" style="fill: #1f77b4; stroke: #1f77b4"/>
     <use xlink:href="#m75b283697a" x="93.368484" y="97.649322" style="fill: #1f77b4; stroke: #1f77b4"/>
     <use xlink:href="#m75b283697a" x="92.885382" y="198.216528" style="fill: #1f77b4; stroke: #1f77b4"/>
     <use xlink:href="#m75b283697a" x="71.365832" y="159.767589" style="fill: #1f77b4; stroke: #1f77b4"/>
     <use xlink:href="#m75b283697a" x="121.603625" y="92.687726" style="fill: #1f77b4; stroke: #1f77b4"/>
     <use xlink:href="#m75b283697a" x="70.270483" y="177.537877" style="fill: #1f77b4; stroke: #1f77b4"/>
     <use xlink:href="#m75b283697a" x="86.265454" y="107.535931" style="fill: #1f77b4; stroke: #1f77b4"/>
     <use xlink:href="#m75b283697a" x="197.785415" y="60.860346" style="fill: #1f77b4; stroke: #1f77b4"/>
     <use xlink:href="#m75b283697a" x="204.792781" y="54.138183" style="fill: #1f77b4; stroke: #1f77b4"/>
     <use xlink:href="#m75b283697a" x="128.874067" y="143.245703" style="fill: #1f77b4; stroke: #1f77b4"/>
     <use xlink:href="#m75b283697a" x="71.10754" y="164.413655" style="fill: #1f77b4; stroke: #1f77b4"/>
     <use xlink:href="#m75b283697a" x="78.975879" y="87.936484" style="fill: #1f77b4; stroke: #1f77b4"/>
     <use xlink:href="#m75b283697a" x="210.006453" y="59.116815" style="fill: #1f77b4; stroke: #1f77b4"/>
     <use xlink:href="#m75b283697a" x="72.92515" y="155.812031" style="fill: #1f77b4; stroke: #1f77b4"/>
     <use xlink:href="#m75b283697a" x="166.713844" y="57.316348" style="fill: #1f77b4; stroke: #1f77b4"/>
     <use xlink:href="#m75b283697a" x="226.642371" y="109.927557" style="fill: #1f77b4; stroke: #1f77b4"/>
     <use xlink:href="#m75b283697a" x="109.219959" y="94.786687" style="fill: #1f77b4; stroke: #1f77b4"/>
     <use xlink:href="#m75b283697a" x="91.182568" y="106.552758" style="fill: #1f77b4; stroke: #1f77b4"/>
     <use xlink:href="#m75b283697a" x="72.155057" y="182.055901" style="fill: #1f77b4; stroke: #1f77b4"/>
     <use xlink:href="#m75b283697a" x="70.844465" y="181.09102" style="fill: #1f77b4; stroke: #1f77b4"/>
     <use xlink:href="#m75b283697a" x="82.845476" y="127.030202" style="fill: #1f77b4; stroke: #1f77b4"/>
     <use xlink:href="#m75b283697a" x="74.250093" y="153.690206" style="fill: #1f77b4; stroke: #1f77b4"/>
     <use xlink:href="#m75b283697a" x="82.615883" y="94.141908" style="fill: #1f77b4; stroke: #1f77b4"/>
     <use xlink:href="#m75b283697a" x="211.183117" y="48.966234" style="fill: #1f77b4; stroke: #1f77b4"/>
     <use xlink:href="#m75b283697a" x="132.834544" y="87.840453" style="fill: #1f77b4; stroke: #1f77b4"/>
     <use xlink:href="#m75b283697a" x="216.540284" y="51.897463" style="fill: #1f77b4; stroke: #1f77b4"/>
     <use xlink:href="#m75b283697a" x="75.704181" y="132.339338" style="fill: #1f77b4; stroke: #1f77b4"/>
     <use xlink:href="#m75b283697a" x="80.803056" y="108.743176" style="fill: #1f77b4; stroke: #1f77b4"/>
     <use xlink:href="#m75b283697a" x="108.956884" y="98.124904" style="fill: #1f77b4; stroke: #1f77b4"/>
     <use xlink:href="#m75b283697a" x="86.719856" y="92.481946" style="fill: #1f77b4; stroke: #1f77b4"/>
     <use xlink:href="#m75b283697a" x="215.27274" y="65.890535" style="fill: #1f77b4; stroke: #1f77b4"/>
     <use xlink:href="#m75b283697a" x="177.040741" y="56.333175" style="fill: #1f77b4; stroke: #1f77b4"/>
     <use xlink:href="#m75b283697a" x="197.7328" y="51.851734" style="fill: #1f77b4; stroke: #1f77b4"/>
     <use xlink:href="#m75b283697a" x="100.988097" y="94.155627" style="fill: #1f77b4; stroke: #1f77b4"/>
     <use xlink:href="#m75b283697a" x="204.424476" y="44.443636" style="fill: #1f77b4; stroke: #1f77b4"/>
     <use xlink:href="#m75b283697a" x="85.347082" y="88.462367" style="fill: #1f77b4; stroke: #1f77b4"/>
     <use xlink:href="#m75b283697a" x="93.488063" y="126.010445" style="fill: #1f77b4; stroke: #1f77b4"/>
     <use xlink:href="#m75b283697a" x="74.12573" y="174.707252" style="fill: #1f77b4; stroke: #1f77b4"/>
     <use xlink:href="#m75b283697a" x="84.567423" y="120.847641" style="fill: #1f77b4; stroke: #1f77b4"/>
     <use xlink:href="#m75b283697a" x="75.900291" y="117.971288" style="fill: #1f77b4; stroke: #1f77b4"/>
     <use xlink:href="#m75b283697a" x="149.111723" y="68.387338" style="fill: #1f77b4; stroke: #1f77b4"/>
     <use xlink:href="#m75b283697a" x="241.915081" y="82.019152" style="fill: #1f77b4; stroke: #1f77b4"/>
     <use xlink:href="#m75b283697a" x="75.125415" y="113.576731" style="fill: #1f77b4; stroke: #1f77b4"/>
     <use xlink:href="#m75b283697a" x="75.082367" y="134.351414" style="fill: #1f77b4; stroke: #1f77b4"/>
     <use xlink:href="#m75b283697a" x="109.19126" y="95.614382" style="fill: #1f77b4; stroke: #1f77b4"/>
     <use xlink:href="#m75b283697a" x="95.54005" y="76.184132" style="fill: #1f77b4; stroke: #1f77b4"/>
     <use xlink:href="#m75b283697a" x="73.494349" y="200.310916" style="fill: #1f77b4; stroke: #1f77b4"/>
     <use xlink:href="#m75b283697a" x="70.303965" y="176.719328" style="fill: #1f77b4; stroke: #1f77b4"/>
     <use xlink:href="#m75b283697a" x="111.535021" y="87.785578" style="fill: #1f77b4; stroke: #1f77b4"/>
     <use xlink:href="#m75b283697a" x="113.888348" y="86.377125" style="fill: #1f77b4; stroke: #1f77b4"/>
     <use xlink:href="#m75b283697a" x="373.581818" y="60.585972" style="fill: #1f77b4; stroke: #1f77b4"/>
     <use xlink:href="#m75b283697a" x="175.500555" y="61.468541" style="fill: #1f77b4; stroke: #1f77b4"/>
     <use xlink:href="#m75b283697a" x="101.184208" y="81.51156" style="fill: #1f77b4; stroke: #1f77b4"/>
     <use xlink:href="#m75b283697a" x="72.733823" y="149.002984" style="fill: #1f77b4; stroke: #1f77b4"/>
     <use xlink:href="#m75b283697a" x="71.231903" y="205.912718" style="fill: #1f77b4; stroke: #1f77b4"/>
     <use xlink:href="#m75b283697a" x="116.423436" y="83.496198" style="fill: #1f77b4; stroke: #1f77b4"/>
     <use xlink:href="#m75b283697a" x="84.242166" y="99.643106" style="fill: #1f77b4; stroke: #1f77b4"/>
     <use xlink:href="#m75b283697a" x="71.906332" y="192.097989" style="fill: #1f77b4; stroke: #1f77b4"/>
     <use xlink:href="#m75b283697a" x="164.805354" y="62.671214" style="fill: #1f77b4; stroke: #1f77b4"/>
     <use xlink:href="#m75b283697a" x="75.187597" y="143.314297" style="fill: #1f77b4; stroke: #1f77b4"/>
     <use xlink:href="#m75b283697a" x="107.474097" y="90.849421" style="fill: #1f77b4; stroke: #1f77b4"/>
     <use xlink:href="#m75b283697a" x="119.929511" y="76.316746" style="fill: #1f77b4; stroke: #1f77b4"/>
     <use xlink:href="#m75b283697a" x="94.272506" y="108.692875" style="fill: #1f77b4; stroke: #1f77b4"/>
     <use xlink:href="#m75b283697a" x="75.914641" y="110.032734" style="fill: #1f77b4; stroke: #1f77b4"/>
     <use xlink:href="#m75b283697a" x="77.469176" y="128.923382" style="fill: #1f77b4; stroke: #1f77b4"/>
     <use xlink:href="#m75b283697a" x="97.405492" y="77.482835" style="fill: #1f77b4; stroke: #1f77b4"/>
     <use xlink:href="#m75b283697a" x="82.52022" y="104.485807" style="fill: #1f77b4; stroke: #1f77b4"/>
     <use xlink:href="#m75b283697a" x="70.413978" y="199.364326" style="fill: #1f77b4; stroke: #1f77b4"/>
     <use xlink:href="#m75b283697a" x="72.767305" y="132.59542" style="fill: #1f77b4; stroke: #1f77b4"/>
     <use xlink:href="#m75b283697a" x="87.059462" y="164.148427" style="fill: #1f77b4; stroke: #1f77b4"/>
     <use xlink:href="#m75b283697a" x="72.862969" y="132.677732" style="fill: #1f77b4; stroke: #1f77b4"/>
     <use xlink:href="#m75b283697a" x="225.666601" y="58.665354" style="fill: #1f77b4; stroke: #1f77b4"/>
     <use xlink:href="#m75b283697a" x="172.54933" y="55.64724" style="fill: #1f77b4; stroke: #1f77b4"/>
     <use xlink:href="#m75b283697a" x="79.731623" y="97.800228" style="fill: #1f77b4; stroke: #1f77b4"/>
     <use xlink:href="#m75b283697a" x="70.58139" y="184.63959" style="fill: #1f77b4; stroke: #1f77b4"/>
     <use xlink:href="#m75b283697a" x="75.565468" y="203.21928" style="fill: #1f77b4; stroke: #1f77b4"/>
     <use xlink:href="#m75b283697a" x="274.330727" y="56.287446" style="fill: #1f77b4; stroke: #1f77b4"/>
     <use xlink:href="#m75b283697a" x="159.677779" y="86.564614" style="fill: #1f77b4; stroke: #1f77b4"/>
     <use xlink:href="#m75b283697a" x="77.799216" y="124.451086" style="fill: #1f77b4; stroke: #1f77b4"/>
     <use xlink:href="#m75b283697a" x="103.240978" y="73.051696" style="fill: #1f77b4; stroke: #1f77b4"/>
     <use xlink:href="#m75b283697a" x="76.531672" y="147.795738" style="fill: #1f77b4; stroke: #1f77b4"/>
     <use xlink:href="#m75b283697a" x="86.509396" y="96.012224" style="fill: #1f77b4; stroke: #1f77b4"/>
     <use xlink:href="#m75b283697a" x="95.520917" y="94.032159" style="fill: #1f77b4; stroke: #1f77b4"/>
     <use xlink:href="#m75b283697a" x="80.248207" y="111.09822" style="fill: #1f77b4; stroke: #1f77b4"/>
     <use xlink:href="#m75b283697a" x="123.689094" y="78.466009" style="fill: #1f77b4; stroke: #1f77b4"/>
     <use xlink:href="#m75b283697a" x="161.614969" y="65.067413" style="fill: #1f77b4; stroke: #1f77b4"/>
     <use xlink:href="#m75b283697a" x="356.697175" y="65.799077" style="fill: #1f77b4; stroke: #1f77b4"/>
     <use xlink:href="#m75b283697a" x="101.729491" y="94.196783" style="fill: #1f77b4; stroke: #1f77b4"/>
     <use xlink:href="#m75b283697a" x="108.813388" y="117.472842" style="fill: #1f77b4; stroke: #1f77b4"/>
     <use xlink:href="#m75b283697a" x="71.188854" y="198.584647" style="fill: #1f77b4; stroke: #1f77b4"/>
     <use xlink:href="#m75b283697a" x="109.320406" y="89.687904" style="fill: #1f77b4; stroke: #1f77b4"/>
     <use xlink:href="#m75b283697a" x="96.008802" y="93.602306" style="fill: #1f77b4; stroke: #1f77b4"/>
     <use xlink:href="#m75b283697a" x="87.384719" y="99.345868" style="fill: #1f77b4; stroke: #1f77b4"/>
     <use xlink:href="#m75b283697a" x="74.135296" y="126.819848" style="fill: #1f77b4; stroke: #1f77b4"/>
     <use xlink:href="#m75b283697a" x="163.489978" y="85.366514" style="fill: #1f77b4; stroke: #1f77b4"/>
     <use xlink:href="#m75b283697a" x="75.048884" y="152.057681" style="fill: #1f77b4; stroke: #1f77b4"/>
     <use xlink:href="#m75b283697a" x="99.423996" y="86.870998" style="fill: #1f77b4; stroke: #1f77b4"/>
     <use xlink:href="#m75b283697a" x="140.669401" y="88.247441" style="fill: #1f77b4; stroke: #1f77b4"/>
     <use xlink:href="#m75b283697a" x="70.294398" y="242.116364" style="fill: #1f77b4; stroke: #1f77b4"/>
     <use xlink:href="#m75b283697a" x="244.005333" y="58.208064" style="fill: #1f77b4; stroke: #1f77b4"/>
     <use xlink:href="#m75b283697a" x="128.515328" y="81.758496" style="fill: #1f77b4; stroke: #1f77b4"/>
     <use xlink:href="#m75b283697a" x="160.6105" y="68.40563" style="fill: #1f77b4; stroke: #1f77b4"/>
     <use xlink:href="#m75b283697a" x="76.440791" y="129.234339" style="fill: #1f77b4; stroke: #1f77b4"/>
     <use xlink:href="#m75b283697a" x="72.035478" y="183.679281" style="fill: #1f77b4; stroke: #1f77b4"/>
     <use xlink:href="#m75b283697a" x="103.475354" y="160.860512" style="fill: #1f77b4; stroke: #1f77b4"/>
     <use xlink:href="#m75b283697a" x="76.828229" y="191.242857" style="fill: #1f77b4; stroke: #1f77b4"/>
     <use xlink:href="#m75b283697a" x="179.795856" y="53.635164" style="fill: #1f77b4; stroke: #1f77b4"/>
     <use xlink:href="#m75b283697a" x="82.156698" y="91.41646" style="fill: #1f77b4; stroke: #1f77b4"/>
     <use xlink:href="#m75b283697a" x="76.785181" y="151.316871" style="fill: #1f77b4; stroke: #1f77b4"/>
     <use xlink:href="#m75b283697a" x="94.975634" y="106.173207" style="fill: #1f77b4; stroke: #1f77b4"/>
     <use xlink:href="#m75b283697a" x="87.054679" y="193.799107" style="fill: #1f77b4; stroke: #1f77b4"/>
     <use xlink:href="#m75b283697a" x="204.811914" y="51.348715" style="fill: #1f77b4; stroke: #1f77b4"/>
     <use xlink:href="#m75b283697a" x="232.296096" y="50.66278" style="fill: #1f77b4; stroke: #1f77b4"/>
     <use xlink:href="#m75b283697a" x="86.643325" y="81.182311" style="fill: #1f77b4; stroke: #1f77b4"/>
     <use xlink:href="#m75b283697a" x="180.345922" y="68.817191" style="fill: #1f77b4; stroke: #1f77b4"/>
     <use xlink:href="#m75b283697a" x="72.60946" y="125.74979" style="fill: #1f77b4; stroke: #1f77b4"/>
     <use xlink:href="#m75b283697a" x="71.772403" y="187.758307" style="fill: #1f77b4; stroke: #1f77b4"/>
     <use xlink:href="#m75b283697a" x="94.502098" y="92.134405" style="fill: #1f77b4; stroke: #1f77b4"/>
     <use xlink:href="#m75b283697a" x="80.941769" y="144.507824" style="fill: #1f77b4; stroke: #1f77b4"/>
     <use xlink:href="#m75b283697a" x="72.078527" y="171.410191" style="fill: #1f77b4; stroke: #1f77b4"/>
     <use xlink:href="#m75b283697a" x="91.192134" y="92.641997" style="fill: #1f77b4; stroke: #1f77b4"/>
     <use xlink:href="#m75b283697a" x="118.025803" y="103.054489" style="fill: #1f77b4; stroke: #1f77b4"/>
     <use xlink:href="#m75b283697a" x="94.033346" y="81.900256" style="fill: #1f77b4; stroke: #1f77b4"/>
     <use xlink:href="#m75b283697a" x="100.3615" y="96.300317" style="fill: #1f77b4; stroke: #1f77b4"/>
     <use xlink:href="#m75b283697a" x="83.553388" y="124.12641" style="fill: #1f77b4; stroke: #1f77b4"/>
     <use xlink:href="#m75b283697a" x="72.035478" y="196.37365" style="fill: #1f77b4; stroke: #1f77b4"/>
     <use xlink:href="#m75b283697a" x="85.519277" y="106.452154" style="fill: #1f77b4; stroke: #1f77b4"/>
     <use xlink:href="#m75b283697a" x="211.374444" y="77.309065" style="fill: #1f77b4; stroke: #1f77b4"/>
     <use xlink:href="#m75b283697a" x="204.831047" y="59.579934" style="fill: #1f77b4; stroke: #1f77b4"/>
     <use xlink:href="#m75b283697a" x="257.991366" y="65.250329" style="fill: #1f77b4; stroke: #1f77b4"/>
     <use xlink:href="#m75b283697a" x="111.310211" y="74.501305" style="fill: #1f77b4; stroke: #1f77b4"/>
     <use xlink:href="#m75b283697a" x="75.641999" y="110.069317" style="fill: #1f77b4; stroke: #1f77b4"/>
     <use xlink:href="#m75b283697a" x="85.815834" y="108.061814" style="fill: #1f77b4; stroke: #1f77b4"/>
     <use xlink:href="#m75b283697a" x="112.94606" y="85.224754" style="fill: #1f77b4; stroke: #1f77b4"/>
     <use xlink:href="#m75b283697a" x="75.364575" y="79.074204" style="fill: #1f77b4; stroke: #1f77b4"/>
     <use xlink:href="#m75b283697a" x="104.106734" y="92.097822" style="fill: #1f77b4; stroke: #1f77b4"/>
     <use xlink:href="#m75b283697a" x="78.425813" y="140.22759" style="fill: #1f77b4; stroke: #1f77b4"/>
     <use xlink:href="#m75b283697a" x="72.772088" y="225.292666" style="fill: #1f77b4; stroke: #1f77b4"/>
     <use xlink:href="#m75b283697a" x="71.384965" y="215.351183" style="fill: #1f77b4; stroke: #1f77b4"/>
    </g>
   </g>
   <g id="matplotlib.axis_1">
    <g id="xtick_1">
     <g id="line2d_1">
      <defs>
       <path id="m82cd2d9faa" d="M 0 0 
L 0 3.5 
" style="stroke: #000000; stroke-width: 0.8"/>
      </defs>
      <g>
       <use xlink:href="#m82cd2d9faa" x="67.821492" y="252" style="stroke: #000000; stroke-width: 0.8"/>
      </g>
     </g>
     <g id="text_1">
      <!-- 0 -->
      <g transform="translate(64.640242 266.598437)scale(0.1 -0.1)">
       <defs>
        <path id="DejaVuSans-30" d="M 2034 4250 
Q 1547 4250 1301 3770 
Q 1056 3291 1056 2328 
Q 1056 1369 1301 889 
Q 1547 409 2034 409 
Q 2525 409 2770 889 
Q 3016 1369 3016 2328 
Q 3016 3291 2770 3770 
Q 2525 4250 2034 4250 
z
M 2034 4750 
Q 2819 4750 3233 4129 
Q 3647 3509 3647 2328 
Q 3647 1150 3233 529 
Q 2819 -91 2034 -91 
Q 1250 -91 836 529 
Q 422 1150 422 2328 
Q 422 3509 836 4129 
Q 1250 4750 2034 4750 
z
" transform="scale(0.015625)"/>
       </defs>
       <use xlink:href="#DejaVuSans-30"/>
      </g>
     </g>
    </g>
    <g id="xtick_2">
     <g id="line2d_2">
      <g>
       <use xlink:href="#m82cd2d9faa" x="115.653343" y="252" style="stroke: #000000; stroke-width: 0.8"/>
      </g>
     </g>
     <g id="text_2">
      <!-- 10000 -->
      <g transform="translate(99.747093 266.598437)scale(0.1 -0.1)">
       <defs>
        <path id="DejaVuSans-31" d="M 794 531 
L 1825 531 
L 1825 4091 
L 703 3866 
L 703 4441 
L 1819 4666 
L 2450 4666 
L 2450 531 
L 3481 531 
L 3481 0 
L 794 0 
L 794 531 
z
" transform="scale(0.015625)"/>
       </defs>
       <use xlink:href="#DejaVuSans-31"/>
       <use xlink:href="#DejaVuSans-30" x="63.623047"/>
       <use xlink:href="#DejaVuSans-30" x="127.246094"/>
       <use xlink:href="#DejaVuSans-30" x="190.869141"/>
       <use xlink:href="#DejaVuSans-30" x="254.492188"/>
      </g>
     </g>
    </g>
    <g id="xtick_3">
     <g id="line2d_3">
      <g>
       <use xlink:href="#m82cd2d9faa" x="163.485194" y="252" style="stroke: #000000; stroke-width: 0.8"/>
      </g>
     </g>
     <g id="text_3">
      <!-- 20000 -->
      <g transform="translate(147.578944 266.598437)scale(0.1 -0.1)">
       <defs>
        <path id="DejaVuSans-32" d="M 1228 531 
L 3431 531 
L 3431 0 
L 469 0 
L 469 531 
Q 828 903 1448 1529 
Q 2069 2156 2228 2338 
Q 2531 2678 2651 2914 
Q 2772 3150 2772 3378 
Q 2772 3750 2511 3984 
Q 2250 4219 1831 4219 
Q 1534 4219 1204 4116 
Q 875 4013 500 3803 
L 500 4441 
Q 881 4594 1212 4672 
Q 1544 4750 1819 4750 
Q 2544 4750 2975 4387 
Q 3406 4025 3406 3419 
Q 3406 3131 3298 2873 
Q 3191 2616 2906 2266 
Q 2828 2175 2409 1742 
Q 1991 1309 1228 531 
z
" transform="scale(0.015625)"/>
       </defs>
       <use xlink:href="#DejaVuSans-32"/>
       <use xlink:href="#DejaVuSans-30" x="63.623047"/>
       <use xlink:href="#DejaVuSans-30" x="127.246094"/>
       <use xlink:href="#DejaVuSans-30" x="190.869141"/>
       <use xlink:href="#DejaVuSans-30" x="254.492188"/>
      </g>
     </g>
    </g>
    <g id="xtick_4">
     <g id="line2d_4">
      <g>
       <use xlink:href="#m82cd2d9faa" x="211.317046" y="252" style="stroke: #000000; stroke-width: 0.8"/>
      </g>
     </g>
     <g id="text_4">
      <!-- 30000 -->
      <g transform="translate(195.410796 266.598437)scale(0.1 -0.1)">
       <defs>
        <path id="DejaVuSans-33" d="M 2597 2516 
Q 3050 2419 3304 2112 
Q 3559 1806 3559 1356 
Q 3559 666 3084 287 
Q 2609 -91 1734 -91 
Q 1441 -91 1130 -33 
Q 819 25 488 141 
L 488 750 
Q 750 597 1062 519 
Q 1375 441 1716 441 
Q 2309 441 2620 675 
Q 2931 909 2931 1356 
Q 2931 1769 2642 2001 
Q 2353 2234 1838 2234 
L 1294 2234 
L 1294 2753 
L 1863 2753 
Q 2328 2753 2575 2939 
Q 2822 3125 2822 3475 
Q 2822 3834 2567 4026 
Q 2313 4219 1838 4219 
Q 1578 4219 1281 4162 
Q 984 4106 628 3988 
L 628 4550 
Q 988 4650 1302 4700 
Q 1616 4750 1894 4750 
Q 2613 4750 3031 4423 
Q 3450 4097 3450 3541 
Q 3450 3153 3228 2886 
Q 3006 2619 2597 2516 
z
" transform="scale(0.015625)"/>
       </defs>
       <use xlink:href="#DejaVuSans-33"/>
       <use xlink:href="#DejaVuSans-30" x="63.623047"/>
       <use xlink:href="#DejaVuSans-30" x="127.246094"/>
       <use xlink:href="#DejaVuSans-30" x="190.869141"/>
       <use xlink:href="#DejaVuSans-30" x="254.492188"/>
      </g>
     </g>
    </g>
    <g id="xtick_5">
     <g id="line2d_5">
      <g>
       <use xlink:href="#m82cd2d9faa" x="259.148897" y="252" style="stroke: #000000; stroke-width: 0.8"/>
      </g>
     </g>
     <g id="text_5">
      <!-- 40000 -->
      <g transform="translate(243.242647 266.598437)scale(0.1 -0.1)">
       <defs>
        <path id="DejaVuSans-34" d="M 2419 4116 
L 825 1625 
L 2419 1625 
L 2419 4116 
z
M 2253 4666 
L 3047 4666 
L 3047 1625 
L 3713 1625 
L 3713 1100 
L 3047 1100 
L 3047 0 
L 2419 0 
L 2419 1100 
L 313 1100 
L 313 1709 
L 2253 4666 
z
" transform="scale(0.015625)"/>
       </defs>
       <use xlink:href="#DejaVuSans-34"/>
       <use xlink:href="#DejaVuSans-30" x="63.623047"/>
       <use xlink:href="#DejaVuSans-30" x="127.246094"/>
       <use xlink:href="#DejaVuSans-30" x="190.869141"/>
       <use xlink:href="#DejaVuSans-30" x="254.492188"/>
      </g>
     </g>
    </g>
    <g id="xtick_6">
     <g id="line2d_6">
      <g>
       <use xlink:href="#m82cd2d9faa" x="306.980748" y="252" style="stroke: #000000; stroke-width: 0.8"/>
      </g>
     </g>
     <g id="text_6">
      <!-- 50000 -->
      <g transform="translate(291.074498 266.598437)scale(0.1 -0.1)">
       <defs>
        <path id="DejaVuSans-35" d="M 691 4666 
L 3169 4666 
L 3169 4134 
L 1269 4134 
L 1269 2991 
Q 1406 3038 1543 3061 
Q 1681 3084 1819 3084 
Q 2600 3084 3056 2656 
Q 3513 2228 3513 1497 
Q 3513 744 3044 326 
Q 2575 -91 1722 -91 
Q 1428 -91 1123 -41 
Q 819 9 494 109 
L 494 744 
Q 775 591 1075 516 
Q 1375 441 1709 441 
Q 2250 441 2565 725 
Q 2881 1009 2881 1497 
Q 2881 1984 2565 2268 
Q 2250 2553 1709 2553 
Q 1456 2553 1204 2497 
Q 953 2441 691 2322 
L 691 4666 
z
" transform="scale(0.015625)"/>
       </defs>
       <use xlink:href="#DejaVuSans-35"/>
       <use xlink:href="#DejaVuSans-30" x="63.623047"/>
       <use xlink:href="#DejaVuSans-30" x="127.246094"/>
       <use xlink:href="#DejaVuSans-30" x="190.869141"/>
       <use xlink:href="#DejaVuSans-30" x="254.492188"/>
      </g>
     </g>
    </g>
    <g id="xtick_7">
     <g id="line2d_7">
      <g>
       <use xlink:href="#m82cd2d9faa" x="354.8126" y="252" style="stroke: #000000; stroke-width: 0.8"/>
      </g>
     </g>
     <g id="text_7">
      <!-- 60000 -->
      <g transform="translate(338.90635 266.598437)scale(0.1 -0.1)">
       <defs>
        <path id="DejaVuSans-36" d="M 2113 2584 
Q 1688 2584 1439 2293 
Q 1191 2003 1191 1497 
Q 1191 994 1439 701 
Q 1688 409 2113 409 
Q 2538 409 2786 701 
Q 3034 994 3034 1497 
Q 3034 2003 2786 2293 
Q 2538 2584 2113 2584 
z
M 3366 4563 
L 3366 3988 
Q 3128 4100 2886 4159 
Q 2644 4219 2406 4219 
Q 1781 4219 1451 3797 
Q 1122 3375 1075 2522 
Q 1259 2794 1537 2939 
Q 1816 3084 2150 3084 
Q 2853 3084 3261 2657 
Q 3669 2231 3669 1497 
Q 3669 778 3244 343 
Q 2819 -91 2113 -91 
Q 1303 -91 875 529 
Q 447 1150 447 2328 
Q 447 3434 972 4092 
Q 1497 4750 2381 4750 
Q 2619 4750 2861 4703 
Q 3103 4656 3366 4563 
z
" transform="scale(0.015625)"/>
       </defs>
       <use xlink:href="#DejaVuSans-36"/>
       <use xlink:href="#DejaVuSans-30" x="63.623047"/>
       <use xlink:href="#DejaVuSans-30" x="127.246094"/>
       <use xlink:href="#DejaVuSans-30" x="190.869141"/>
       <use xlink:href="#DejaVuSans-30" x="254.492188"/>
      </g>
     </g>
    </g>
    <g id="text_8">
     <!-- gdp_per_capita -->
     <g transform="translate(183.170312 280.276563)scale(0.1 -0.1)">
      <defs>
       <path id="DejaVuSans-67" d="M 2906 1791 
Q 2906 2416 2648 2759 
Q 2391 3103 1925 3103 
Q 1463 3103 1205 2759 
Q 947 2416 947 1791 
Q 947 1169 1205 825 
Q 1463 481 1925 481 
Q 2391 481 2648 825 
Q 2906 1169 2906 1791 
z
M 3481 434 
Q 3481 -459 3084 -895 
Q 2688 -1331 1869 -1331 
Q 1566 -1331 1297 -1286 
Q 1028 -1241 775 -1147 
L 775 -588 
Q 1028 -725 1275 -790 
Q 1522 -856 1778 -856 
Q 2344 -856 2625 -561 
Q 2906 -266 2906 331 
L 2906 616 
Q 2728 306 2450 153 
Q 2172 0 1784 0 
Q 1141 0 747 490 
Q 353 981 353 1791 
Q 353 2603 747 3093 
Q 1141 3584 1784 3584 
Q 2172 3584 2450 3431 
Q 2728 3278 2906 2969 
L 2906 3500 
L 3481 3500 
L 3481 434 
z
" transform="scale(0.015625)"/>
       <path id="DejaVuSans-64" d="M 2906 2969 
L 2906 4863 
L 3481 4863 
L 3481 0 
L 2906 0 
L 2906 525 
Q 2725 213 2448 61 
Q 2172 -91 1784 -91 
Q 1150 -91 751 415 
Q 353 922 353 1747 
Q 353 2572 751 3078 
Q 1150 3584 1784 3584 
Q 2172 3584 2448 3432 
Q 2725 3281 2906 2969 
z
M 947 1747 
Q 947 1113 1208 752 
Q 1469 391 1925 391 
Q 2381 391 2643 752 
Q 2906 1113 2906 1747 
Q 2906 2381 2643 2742 
Q 2381 3103 1925 3103 
Q 1469 3103 1208 2742 
Q 947 2381 947 1747 
z
" transform="scale(0.015625)"/>
       <path id="DejaVuSans-70" d="M 1159 525 
L 1159 -1331 
L 581 -1331 
L 581 3500 
L 1159 3500 
L 1159 2969 
Q 1341 3281 1617 3432 
Q 1894 3584 2278 3584 
Q 2916 3584 3314 3078 
Q 3713 2572 3713 1747 
Q 3713 922 3314 415 
Q 2916 -91 2278 -91 
Q 1894 -91 1617 61 
Q 1341 213 1159 525 
z
M 3116 1747 
Q 3116 2381 2855 2742 
Q 2594 3103 2138 3103 
Q 1681 3103 1420 2742 
Q 1159 2381 1159 1747 
Q 1159 1113 1420 752 
Q 1681 391 2138 391 
Q 2594 391 2855 752 
Q 3116 1113 3116 1747 
z
" transform="scale(0.015625)"/>
       <path id="DejaVuSans-5f" d="M 3263 -1063 
L 3263 -1509 
L -63 -1509 
L -63 -1063 
L 3263 -1063 
z
" transform="scale(0.015625)"/>
       <path id="DejaVuSans-65" d="M 3597 1894 
L 3597 1613 
L 953 1613 
Q 991 1019 1311 708 
Q 1631 397 2203 397 
Q 2534 397 2845 478 
Q 3156 559 3463 722 
L 3463 178 
Q 3153 47 2828 -22 
Q 2503 -91 2169 -91 
Q 1331 -91 842 396 
Q 353 884 353 1716 
Q 353 2575 817 3079 
Q 1281 3584 2069 3584 
Q 2775 3584 3186 3129 
Q 3597 2675 3597 1894 
z
M 3022 2063 
Q 3016 2534 2758 2815 
Q 2500 3097 2075 3097 
Q 1594 3097 1305 2825 
Q 1016 2553 972 2059 
L 3022 2063 
z
" transform="scale(0.015625)"/>
       <path id="DejaVuSans-72" d="M 2631 2963 
Q 2534 3019 2420 3045 
Q 2306 3072 2169 3072 
Q 1681 3072 1420 2755 
Q 1159 2438 1159 1844 
L 1159 0 
L 581 0 
L 581 3500 
L 1159 3500 
L 1159 2956 
Q 1341 3275 1631 3429 
Q 1922 3584 2338 3584 
Q 2397 3584 2469 3576 
Q 2541 3569 2628 3553 
L 2631 2963 
z
" transform="scale(0.015625)"/>
       <path id="DejaVuSans-63" d="M 3122 3366 
L 3122 2828 
Q 2878 2963 2633 3030 
Q 2388 3097 2138 3097 
Q 1578 3097 1268 2742 
Q 959 2388 959 1747 
Q 959 1106 1268 751 
Q 1578 397 2138 397 
Q 2388 397 2633 464 
Q 2878 531 3122 666 
L 3122 134 
Q 2881 22 2623 -34 
Q 2366 -91 2075 -91 
Q 1284 -91 818 406 
Q 353 903 353 1747 
Q 353 2603 823 3093 
Q 1294 3584 2113 3584 
Q 2378 3584 2631 3529 
Q 2884 3475 3122 3366 
z
" transform="scale(0.015625)"/>
       <path id="DejaVuSans-61" d="M 2194 1759 
Q 1497 1759 1228 1600 
Q 959 1441 959 1056 
Q 959 750 1161 570 
Q 1363 391 1709 391 
Q 2188 391 2477 730 
Q 2766 1069 2766 1631 
L 2766 1759 
L 2194 1759 
z
M 3341 1997 
L 3341 0 
L 2766 0 
L 2766 531 
Q 2569 213 2275 61 
Q 1981 -91 1556 -91 
Q 1019 -91 701 211 
Q 384 513 384 1019 
Q 384 1609 779 1909 
Q 1175 2209 1959 2209 
L 2766 2209 
L 2766 2266 
Q 2766 2663 2505 2880 
Q 2244 3097 1772 3097 
Q 1472 3097 1187 3025 
Q 903 2953 641 2809 
L 641 3341 
Q 956 3463 1253 3523 
Q 1550 3584 1831 3584 
Q 2591 3584 2966 3190 
Q 3341 2797 3341 1997 
z
" transform="scale(0.015625)"/>
       <path id="DejaVuSans-69" d="M 603 3500 
L 1178 3500 
L 1178 0 
L 603 0 
L 603 3500 
z
M 603 4863 
L 1178 4863 
L 1178 4134 
L 603 4134 
L 603 4863 
z
" transform="scale(0.015625)"/>
       <path id="DejaVuSans-74" d="M 1172 4494 
L 1172 3500 
L 2356 3500 
L 2356 3053 
L 1172 3053 
L 1172 1153 
Q 1172 725 1289 603 
Q 1406 481 1766 481 
L 2356 481 
L 2356 0 
L 1766 0 
Q 1100 0 847 248 
Q 594 497 594 1153 
L 594 3053 
L 172 3053 
L 172 3500 
L 594 3500 
L 594 4494 
L 1172 4494 
z
" transform="scale(0.015625)"/>
      </defs>
      <use xlink:href="#DejaVuSans-67"/>
      <use xlink:href="#DejaVuSans-64" x="63.476562"/>
      <use xlink:href="#DejaVuSans-70" x="126.953125"/>
      <use xlink:href="#DejaVuSans-5f" x="190.429688"/>
      <use xlink:href="#DejaVuSans-70" x="240.429688"/>
      <use xlink:href="#DejaVuSans-65" x="303.90625"/>
      <use xlink:href="#DejaVuSans-72" x="365.429688"/>
      <use xlink:href="#DejaVuSans-5f" x="406.542969"/>
      <use xlink:href="#DejaVuSans-63" x="456.542969"/>
      <use xlink:href="#DejaVuSans-61" x="511.523438"/>
      <use xlink:href="#DejaVuSans-70" x="572.802734"/>
      <use xlink:href="#DejaVuSans-69" x="636.279297"/>
      <use xlink:href="#DejaVuSans-74" x="664.0625"/>
      <use xlink:href="#DejaVuSans-61" x="703.271484"/>
     </g>
    </g>
   </g>
   <g id="matplotlib.axis_2">
    <g id="ytick_1">
     <g id="line2d_8">
      <defs>
       <path id="m425d47cea7" d="M 0 0 
L -3.5 0 
" style="stroke: #000000; stroke-width: 0.8"/>
      </defs>
      <g>
       <use xlink:href="#m425d47cea7" x="54" y="233.533031" style="stroke: #000000; stroke-width: 0.8"/>
      </g>
     </g>
     <g id="text_9">
      <!-- 40 -->
      <g transform="translate(34.275 237.33225)scale(0.1 -0.1)">
       <use xlink:href="#DejaVuSans-34"/>
       <use xlink:href="#DejaVuSans-30" x="63.623047"/>
      </g>
     </g>
    </g>
    <g id="ytick_2">
     <g id="line2d_9">
      <g>
       <use xlink:href="#m425d47cea7" x="54" y="187.804036" style="stroke: #000000; stroke-width: 0.8"/>
      </g>
     </g>
     <g id="text_10">
      <!-- 50 -->
      <g transform="translate(34.275 191.603255)scale(0.1 -0.1)">
       <use xlink:href="#DejaVuSans-35"/>
       <use xlink:href="#DejaVuSans-30" x="63.623047"/>
      </g>
     </g>
    </g>
    <g id="ytick_3">
     <g id="line2d_10">
      <g>
       <use xlink:href="#m425d47cea7" x="54" y="142.075041" style="stroke: #000000; stroke-width: 0.8"/>
      </g>
     </g>
     <g id="text_11">
      <!-- 60 -->
      <g transform="translate(34.275 145.87426)scale(0.1 -0.1)">
       <use xlink:href="#DejaVuSans-36"/>
       <use xlink:href="#DejaVuSans-30" x="63.623047"/>
      </g>
     </g>
    </g>
    <g id="ytick_4">
     <g id="line2d_11">
      <g>
       <use xlink:href="#m425d47cea7" x="54" y="96.346046" style="stroke: #000000; stroke-width: 0.8"/>
      </g>
     </g>
     <g id="text_12">
      <!-- 70 -->
      <g transform="translate(34.275 100.145265)scale(0.1 -0.1)">
       <defs>
        <path id="DejaVuSans-37" d="M 525 4666 
L 3525 4666 
L 3525 4397 
L 1831 0 
L 1172 0 
L 2766 4134 
L 525 4134 
L 525 4666 
z
" transform="scale(0.015625)"/>
       </defs>
       <use xlink:href="#DejaVuSans-37"/>
       <use xlink:href="#DejaVuSans-30" x="63.623047"/>
      </g>
     </g>
    </g>
    <g id="ytick_5">
     <g id="line2d_12">
      <g>
       <use xlink:href="#m425d47cea7" x="54" y="50.617051" style="stroke: #000000; stroke-width: 0.8"/>
      </g>
     </g>
     <g id="text_13">
      <!-- 80 -->
      <g transform="translate(34.275 54.416269)scale(0.1 -0.1)">
       <defs>
        <path id="DejaVuSans-38" d="M 2034 2216 
Q 1584 2216 1326 1975 
Q 1069 1734 1069 1313 
Q 1069 891 1326 650 
Q 1584 409 2034 409 
Q 2484 409 2743 651 
Q 3003 894 3003 1313 
Q 3003 1734 2745 1975 
Q 2488 2216 2034 2216 
z
M 1403 2484 
Q 997 2584 770 2862 
Q 544 3141 544 3541 
Q 544 4100 942 4425 
Q 1341 4750 2034 4750 
Q 2731 4750 3128 4425 
Q 3525 4100 3525 3541 
Q 3525 3141 3298 2862 
Q 3072 2584 2669 2484 
Q 3125 2378 3379 2068 
Q 3634 1759 3634 1313 
Q 3634 634 3220 271 
Q 2806 -91 2034 -91 
Q 1263 -91 848 271 
Q 434 634 434 1313 
Q 434 1759 690 2068 
Q 947 2378 1403 2484 
z
M 1172 3481 
Q 1172 3119 1398 2916 
Q 1625 2713 2034 2713 
Q 2441 2713 2670 2916 
Q 2900 3119 2900 3481 
Q 2900 3844 2670 4047 
Q 2441 4250 2034 4250 
Q 1625 4250 1398 4047 
Q 1172 3844 1172 3481 
z
" transform="scale(0.015625)"/>
       </defs>
       <use xlink:href="#DejaVuSans-38"/>
       <use xlink:href="#DejaVuSans-30" x="63.623047"/>
      </g>
     </g>
    </g>
    <g id="text_14">
     <!-- life_expectancy -->
     <g transform="translate(27.917187 182.244844)rotate(-90)scale(0.1 -0.1)">
      <defs>
       <path id="DejaVuSans-6c" d="M 603 4863 
L 1178 4863 
L 1178 0 
L 603 0 
L 603 4863 
z
" transform="scale(0.015625)"/>
       <path id="DejaVuSans-66" d="M 2375 4863 
L 2375 4384 
L 1825 4384 
Q 1516 4384 1395 4259 
Q 1275 4134 1275 3809 
L 1275 3500 
L 2222 3500 
L 2222 3053 
L 1275 3053 
L 1275 0 
L 697 0 
L 697 3053 
L 147 3053 
L 147 3500 
L 697 3500 
L 697 3744 
Q 697 4328 969 4595 
Q 1241 4863 1831 4863 
L 2375 4863 
z
" transform="scale(0.015625)"/>
       <path id="DejaVuSans-78" d="M 3513 3500 
L 2247 1797 
L 3578 0 
L 2900 0 
L 1881 1375 
L 863 0 
L 184 0 
L 1544 1831 
L 300 3500 
L 978 3500 
L 1906 2253 
L 2834 3500 
L 3513 3500 
z
" transform="scale(0.015625)"/>
       <path id="DejaVuSans-6e" d="M 3513 2113 
L 3513 0 
L 2938 0 
L 2938 2094 
Q 2938 2591 2744 2837 
Q 2550 3084 2163 3084 
Q 1697 3084 1428 2787 
Q 1159 2491 1159 1978 
L 1159 0 
L 581 0 
L 581 3500 
L 1159 3500 
L 1159 2956 
Q 1366 3272 1645 3428 
Q 1925 3584 2291 3584 
Q 2894 3584 3203 3211 
Q 3513 2838 3513 2113 
z
" transform="scale(0.015625)"/>
       <path id="DejaVuSans-79" d="M 2059 -325 
Q 1816 -950 1584 -1140 
Q 1353 -1331 966 -1331 
L 506 -1331 
L 506 -850 
L 844 -850 
Q 1081 -850 1212 -737 
Q 1344 -625 1503 -206 
L 1606 56 
L 191 3500 
L 800 3500 
L 1894 763 
L 2988 3500 
L 3597 3500 
L 2059 -325 
z
" transform="scale(0.015625)"/>
      </defs>
      <use xlink:href="#DejaVuSans-6c"/>
      <use xlink:href="#DejaVuSans-69" x="27.783203"/>
      <use xlink:href="#DejaVuSans-66" x="55.566406"/>
      <use xlink:href="#DejaVuSans-65" x="90.771484"/>
      <use xlink:href="#DejaVuSans-5f" x="152.294922"/>
      <use xlink:href="#DejaVuSans-65" x="202.294922"/>
      <use xlink:href="#DejaVuSans-78" x="262.068359"/>
      <use xlink:href="#DejaVuSans-70" x="321.248047"/>
      <use xlink:href="#DejaVuSans-65" x="384.724609"/>
      <use xlink:href="#DejaVuSans-63" x="446.248047"/>
      <use xlink:href="#DejaVuSans-74" x="501.228516"/>
      <use xlink:href="#DejaVuSans-61" x="540.4375"/>
      <use xlink:href="#DejaVuSans-6e" x="601.716797"/>
      <use xlink:href="#DejaVuSans-63" x="665.095703"/>
      <use xlink:href="#DejaVuSans-79" x="720.076172"/>
     </g>
    </g>
   </g>
   <g id="patch_3">
    <path d="M 54 252 
L 54 34.56 
" style="fill: none; stroke: #000000; stroke-width: 0.8; stroke-linejoin: miter; stroke-linecap: square"/>
   </g>
   <g id="patch_4">
    <path d="M 388.8 252 
L 388.8 34.56 
" style="fill: none; stroke: #000000; stroke-width: 0.8; stroke-linejoin: miter; stroke-linecap: square"/>
   </g>
   <g id="patch_5">
    <path d="M 54 252 
L 388.8 252 
" style="fill: none; stroke: #000000; stroke-width: 0.8; stroke-linejoin: miter; stroke-linecap: square"/>
   </g>
   <g id="patch_6">
    <path d="M 54 34.56 
L 388.8 34.56 
" style="fill: none; stroke: #000000; stroke-width: 0.8; stroke-linejoin: miter; stroke-linecap: square"/>
   </g>
   <g id="text_15">
    <!-- Lebenserwartung und Wohlstand -->
    <g transform="translate(122.35125 28.56)scale(0.12 -0.12)">
     <defs>
      <path id="DejaVuSans-4c" d="M 628 4666 
L 1259 4666 
L 1259 531 
L 3531 531 
L 3531 0 
L 628 0 
L 628 4666 
z
" transform="scale(0.015625)"/>
      <path id="DejaVuSans-62" d="M 3116 1747 
Q 3116 2381 2855 2742 
Q 2594 3103 2138 3103 
Q 1681 3103 1420 2742 
Q 1159 2381 1159 1747 
Q 1159 1113 1420 752 
Q 1681 391 2138 391 
Q 2594 391 2855 752 
Q 3116 1113 3116 1747 
z
M 1159 2969 
Q 1341 3281 1617 3432 
Q 1894 3584 2278 3584 
Q 2916 3584 3314 3078 
Q 3713 2572 3713 1747 
Q 3713 922 3314 415 
Q 2916 -91 2278 -91 
Q 1894 -91 1617 61 
Q 1341 213 1159 525 
L 1159 0 
L 581 0 
L 581 4863 
L 1159 4863 
L 1159 2969 
z
" transform="scale(0.015625)"/>
      <path id="DejaVuSans-73" d="M 2834 3397 
L 2834 2853 
Q 2591 2978 2328 3040 
Q 2066 3103 1784 3103 
Q 1356 3103 1142 2972 
Q 928 2841 928 2578 
Q 928 2378 1081 2264 
Q 1234 2150 1697 2047 
L 1894 2003 
Q 2506 1872 2764 1633 
Q 3022 1394 3022 966 
Q 3022 478 2636 193 
Q 2250 -91 1575 -91 
Q 1294 -91 989 -36 
Q 684 19 347 128 
L 347 722 
Q 666 556 975 473 
Q 1284 391 1588 391 
Q 1994 391 2212 530 
Q 2431 669 2431 922 
Q 2431 1156 2273 1281 
Q 2116 1406 1581 1522 
L 1381 1569 
Q 847 1681 609 1914 
Q 372 2147 372 2553 
Q 372 3047 722 3315 
Q 1072 3584 1716 3584 
Q 2034 3584 2315 3537 
Q 2597 3491 2834 3397 
z
" transform="scale(0.015625)"/>
      <path id="DejaVuSans-77" d="M 269 3500 
L 844 3500 
L 1563 769 
L 2278 3500 
L 2956 3500 
L 3675 769 
L 4391 3500 
L 4966 3500 
L 4050 0 
L 3372 0 
L 2619 2869 
L 1863 0 
L 1184 0 
L 269 3500 
z
" transform="scale(0.015625)"/>
      <path id="DejaVuSans-75" d="M 544 1381 
L 544 3500 
L 1119 3500 
L 1119 1403 
Q 1119 906 1312 657 
Q 1506 409 1894 409 
Q 2359 409 2629 706 
Q 2900 1003 2900 1516 
L 2900 3500 
L 3475 3500 
L 3475 0 
L 2900 0 
L 2900 538 
Q 2691 219 2414 64 
Q 2138 -91 1772 -91 
Q 1169 -91 856 284 
Q 544 659 544 1381 
z
M 1991 3584 
L 1991 3584 
z
" transform="scale(0.015625)"/>
      <path id="DejaVuSans-20" transform="scale(0.015625)"/>
      <path id="DejaVuSans-57" d="M 213 4666 
L 850 4666 
L 1831 722 
L 2809 4666 
L 3519 4666 
L 4500 722 
L 5478 4666 
L 6119 4666 
L 4947 0 
L 4153 0 
L 3169 4050 
L 2175 0 
L 1381 0 
L 213 4666 
z
" transform="scale(0.015625)"/>
      <path id="DejaVuSans-6f" d="M 1959 3097 
Q 1497 3097 1228 2736 
Q 959 2375 959 1747 
Q 959 1119 1226 758 
Q 1494 397 1959 397 
Q 2419 397 2687 759 
Q 2956 1122 2956 1747 
Q 2956 2369 2687 2733 
Q 2419 3097 1959 3097 
z
M 1959 3584 
Q 2709 3584 3137 3096 
Q 3566 2609 3566 1747 
Q 3566 888 3137 398 
Q 2709 -91 1959 -91 
Q 1206 -91 779 398 
Q 353 888 353 1747 
Q 353 2609 779 3096 
Q 1206 3584 1959 3584 
z
" transform="scale(0.015625)"/>
      <path id="DejaVuSans-68" d="M 3513 2113 
L 3513 0 
L 2938 0 
L 2938 2094 
Q 2938 2591 2744 2837 
Q 2550 3084 2163 3084 
Q 1697 3084 1428 2787 
Q 1159 2491 1159 1978 
L 1159 0 
L 581 0 
L 581 4863 
L 1159 4863 
L 1159 2956 
Q 1366 3272 1645 3428 
Q 1925 3584 2291 3584 
Q 2894 3584 3203 3211 
Q 3513 2838 3513 2113 
z
" transform="scale(0.015625)"/>
     </defs>
     <use xlink:href="#DejaVuSans-4c"/>
     <use xlink:href="#DejaVuSans-65" x="53.962891"/>
     <use xlink:href="#DejaVuSans-62" x="115.486328"/>
     <use xlink:href="#DejaVuSans-65" x="178.962891"/>
     <use xlink:href="#DejaVuSans-6e" x="240.486328"/>
     <use xlink:href="#DejaVuSans-73" x="303.865234"/>
     <use xlink:href="#DejaVuSans-65" x="355.964844"/>
     <use xlink:href="#DejaVuSans-72" x="417.488281"/>
     <use xlink:href="#DejaVuSans-77" x="458.601562"/>
     <use xlink:href="#DejaVuSans-61" x="540.388672"/>
     <use xlink:href="#DejaVuSans-72" x="601.667969"/>
     <use xlink:href="#DejaVuSans-74" x="642.78125"/>
     <use xlink:href="#DejaVuSans-75" x="681.990234"/>
     <use xlink:href="#DejaVuSans-6e" x="745.369141"/>
     <use xlink:href="#DejaVuSans-67" x="808.748047"/>
     <use xlink:href="#DejaVuSans-20" x="872.224609"/>
     <use xlink:href="#DejaVuSans-75" x="904.011719"/>
     <use xlink:href="#DejaVuSans-6e" x="967.390625"/>
     <use xlink:href="#DejaVuSans-64" x="1030.769531"/>
     <use xlink:href="#DejaVuSans-20" x="1094.246094"/>
     <use xlink:href="#DejaVuSans-57" x="1126.033203"/>
     <use xlink:href="#DejaVuSans-6f" x="1219.035156"/>
     <use xlink:href="#DejaVuSans-68" x="1280.216797"/>
     <use xlink:href="#DejaVuSans-6c" x="1343.595703"/>
     <use xlink:href="#DejaVuSans-73" x="1371.378906"/>
     <use xlink:href="#DejaVuSans-74" x="1423.478516"/>
     <use xlink:href="#DejaVuSans-61" x="1462.6875"/>
     <use xlink:href="#DejaVuSans-6e" x="1523.966797"/>
     <use xlink:href="#DejaVuSans-64" x="1587.345703"/>
    </g>
   </g>
  </g>
 </g>
 <defs>
  <clipPath id="p6d5e326235">
   <rect x="54" y="34.56" width="334.8" height="217.44"/>
  </clipPath>
 </defs>
</svg>
